<svg id="Layer_1" data-name="Layer 1" xmlns="http://www.w3.org/2000/svg" width="200" height="200" viewBox="0 0 200 200">
  <defs>
    <style>
      .cls-1 {
        fill: #593718;
      }

      .cls-2 {
        fill: #f2b705;
      }
    </style>
  </defs>
  <g>
    <path class="cls-1" d="M20.6,74.06V22.56H35.51A43.14,43.14,0,0,1,47.6,24.11a25.87,25.87,0,0,1,9.19,4.65,20.09,20.09,0,0,1,5.91,8,29.15,29.15,0,0,1,2.06,11.34q0,12.48-7.53,19.21T36.38,74.06Zm9.53-7.63H37q8.82,0,13.43-4.62T55,48.33q0-9.49-4.74-13.8T35.93,30.22h-5.8Z"/>
    <path class="cls-1" d="M89.51,74.8q-8.58,0-13.5-5.55T71.08,54.62q0-9.34,4.93-14.75t13.88-5.39q8.65,0,13.56,5.5t4.9,14.64q0,9.26-5,14.71T89.51,74.8Zm.24-7a8,8,0,0,0,7-3.41q2.35-3.42,2.36-9.78t-2.36-9.81a8.07,8.07,0,0,0-7.1-3.37,8,8,0,0,0-7.05,3.39q-2.37,3.39-2.37,9.83t2.39,9.74A8.11,8.11,0,0,0,89.75,67.81Z"/>
    <path class="cls-1" d="M128.21,74.77q-8.54,0-13.67-2.92l.95-6.93a28,28,0,0,0,5.9,2.27,24.4,24.4,0,0,0,6.54,1,8.54,8.54,0,0,0,4.77-1.14,3.89,3.89,0,0,0,1.74-3.36,3.71,3.71,0,0,0-1.6-3.16,29.18,29.18,0,0,0-6.1-2.88l-2-.74q-5.34-2.08-7.7-4.63a9.77,9.77,0,0,1-2.35-6.9,9.45,9.45,0,0,1,3.81-8.09q3.83-2.82,10.64-2.81a28.83,28.83,0,0,1,13,2.77l-2.29,6.37a25,25,0,0,0-10.51-2.57A8.51,8.51,0,0,0,125,42a3.08,3.08,0,0,0-1.56,2.83,3.17,3.17,0,0,0,1.51,2.8,32.71,32.71,0,0,0,5.9,2.62c.1,0,.4.13.92.31s.91.34,1.19.46a19.87,19.87,0,0,1,7.81,4.62,9.93,9.93,0,0,1,2.49,7q0,5.79-3.93,9T128.21,74.77Z"/>
    <path class="cls-1" d="M54.14,119.59a19.83,19.83,0,0,1-6.56-.93,8.41,8.41,0,0,1-4.09-2.94,12.37,12.37,0,0,1-2.1-4.73,31.16,31.16,0,0,1-.61-6.73V86H34.45l.35-5,6.61-.59,3-10.48,5.62,0V80.43h9.6V86H50v18.42c0,2.93.42,5,1.27,6.26s2.4,1.86,4.67,1.86a28.78,28.78,0,0,0,4.29-.35l.25,6.61s-.34.05-.86.16l-1.52.28c-.48.08-1.09.15-1.84.23S54.79,119.59,54.14,119.59Z"/>
    <path class="cls-1" d="M83.21,119.8q-8.58,0-13.5-5.55T64.79,99.62q0-9.34,4.92-14.75T83.6,79.48q8.66,0,13.55,5.5t4.91,14.64q0,9.25-5,14.71T83.21,119.8Zm.25-7a8,8,0,0,0,7-3.41q2.36-3.42,2.36-9.78t-2.36-9.81a8.08,8.08,0,0,0-7.1-3.37,8,8,0,0,0-7,3.39Q74,93.22,74,99.66t2.39,9.74A8.11,8.11,0,0,0,83.46,112.81Z"/>
    <path class="cls-1" d="M127.44,119.8q-9.31,0-14.5-5.36t-5.19-14.82q0-9.21,4.89-14.66T126,79.48q8,0,12.4,5t4.41,13.25c0,.4,0,1,0,1.94s0,1.54,0,2H117q.15,5.41,3,8.38a10.26,10.26,0,0,0,7.79,3,24.42,24.42,0,0,0,12.17-3.3l1.3,6.54A25.79,25.79,0,0,1,127.44,119.8Zm-10.23-24h16.87q0-4.71-2.14-7.24A7.39,7.39,0,0,0,126,86.05a8.13,8.13,0,0,0-6,2.46Q117.56,91,117.21,95.82Z"/>
    <path class="cls-1" d="M160.94,119.06l-15.4-38.63h9.78q.56,1.57,3.57,9.82t4,11.24q2,5.83,2.88,8.82s.2-.79.6-2.29.78-2.91,1.14-4.23.59-2.13.69-2.41q0-.07,3.21-9.7c2.12-6.42,3.38-10.18,3.78-11.25h9.7l-14.62,38.63Z"/>
    <path class="cls-2" d="M32,164.77q-8.55,0-13.68-2.92l.95-6.93a28.14,28.14,0,0,0,5.91,2.27,24.38,24.38,0,0,0,6.53,1,8.54,8.54,0,0,0,4.77-1.14,3.89,3.89,0,0,0,1.74-3.36,3.71,3.71,0,0,0-1.6-3.16,29.59,29.59,0,0,0-6.1-2.89l-2-.73q-5.34-2.08-7.69-4.63a9.77,9.77,0,0,1-2.36-6.9,9.44,9.44,0,0,1,3.81-8.09q3.82-2.82,10.64-2.81a28.8,28.8,0,0,1,13,2.77l-2.28,6.37a25,25,0,0,0-10.51-2.57,8.55,8.55,0,0,0-4.35.93,3.08,3.08,0,0,0-1.56,2.83,3.17,3.17,0,0,0,1.51,2.8,32.91,32.91,0,0,0,5.91,2.62c.09,0,.4.13.91.31s.92.34,1.2.46a19.82,19.82,0,0,1,7.8,4.62,9.89,9.89,0,0,1,2.5,7q0,5.79-3.94,9T32,164.77Z"/>
    <path class="cls-2" d="M54.31,164.06V111.19l9.22-.6v23.73l-.22,7.81.73-.71.75-.74Q66.72,138.4,69,136T74.72,130c2.31-2.34,3.82-3.88,4.52-4.6h11L74.32,141.88l16.91,22.18H80.08L67.36,146.52l-3.83,3v14.52Z"/>
    <path class="cls-2" d="M97.59,180.34a42.79,42.79,0,0,1-4.78-.28l-.46-7.14a38.51,38.51,0,0,0,4.12.18,9.19,9.19,0,0,0,5.13-1.27,9.09,9.09,0,0,0,3.2-4.5c.09-.23.56-1.56,1.41-4L90.67,125.43h9.84l10.16,28q1.13-4.19,5-15.54T120,125.43h9.85l-16.21,42.82q-2.5,6.5-6.29,9.3A16.12,16.12,0,0,1,97.59,180.34Z"/>
  </g>
</svg>
