<svg id="Layer_1" data-name="Layer 1" xmlns="http://www.w3.org/2000/svg" width="128" height="39.26" viewBox="0 0 128 39.26">
  <defs>
    <style>
      .cls-1 {
        fill: #593718;
      }

      .cls-2 {
        fill: #f8efd2;
      }
    </style>
  </defs>
  <g>
    <g>
      <path d="M21.58,13.81a5.61,5.61,0,0,1,.86.06l-.07,1.6a4.45,4.45,0,0,0-.83-.09,3,3,0,0,0-2.36,1,3.6,3.6,0,0,0-.9,2.5v6.39H16.55c0-7,0-10.78,0-11.38H18l.16,2a4.86,4.86,0,0,1,1.51-1.55A3.42,3.42,0,0,1,21.58,13.81Z"/>
      <path d="M28.82,25.53A5,5,0,0,1,24.92,24a6.19,6.19,0,0,1-1.43-4.31,6.43,6.43,0,0,1,1.38-4.29,4.59,4.59,0,0,1,3.63-1.68,4.22,4.22,0,0,1,3.36,1.45A5.75,5.75,0,0,1,33.1,19c0,.09,0,.24,0,.46v.48H25.28a4.46,4.46,0,0,0,1,3A3.31,3.31,0,0,0,28.89,24a7.61,7.61,0,0,0,3.61-.95l.27,1.4A7.46,7.46,0,0,1,28.82,25.53ZM30.57,16a2.6,2.6,0,0,0-2.09-.91,2.81,2.81,0,0,0-2.17.94,4.34,4.34,0,0,0-1,2.57h6A3.93,3.93,0,0,0,30.57,16Z"/>
      <path d="M42.43,25.29c-.1-.44-.2-.92-.3-1.43a6,6,0,0,1-1.77,1.3,4.74,4.74,0,0,1-2,.37,3.79,3.79,0,0,1-2.57-.84,3,3,0,0,1-1-2.4,2.84,2.84,0,0,1,1.32-2.58A8.5,8.5,0,0,1,40,18.66l1-.09,1-.08v-1a2.48,2.48,0,0,0-.56-1.78,2.36,2.36,0,0,0-1.77-.59,7.76,7.76,0,0,0-3.39.83l-.27-.72c-.14-.39-.22-.6-.23-.61a7,7,0,0,1,1.8-.68,9,9,0,0,1,2.12-.26,4.25,4.25,0,0,1,3.07.93,4.33,4.33,0,0,1,.94,3.16v7.53Zm-3.76-1.16a3.64,3.64,0,0,0,2.17-.68,3.11,3.11,0,0,0,1.21-1.83V19.7l-.63.05-.75.06a7.81,7.81,0,0,0-3.14.74,1.88,1.88,0,0,0-.89,1.73,1.72,1.72,0,0,0,.54,1.38A2.22,2.22,0,0,0,38.67,24.13Z"/>
      <path d="M54.62,23.64A4.21,4.21,0,0,1,53.12,25a4.61,4.61,0,0,1-5.61-1.1,6.8,6.8,0,0,1-1.27-4.36,6.63,6.63,0,0,1,1.29-4.25A4.21,4.21,0,0,1,51,13.67a4.76,4.76,0,0,1,2.13.5,3.53,3.53,0,0,1,1.5,1.32l0-1v-5l1.72-.1v15.9H54.84ZM51.2,24a3,3,0,0,0,2.55-1.1,5.08,5.08,0,0,0,.83-3.14,6.12,6.12,0,0,0-.8-3.47,2.92,2.92,0,0,0-2.6-1.16,2.83,2.83,0,0,0-1.41.34,2.63,2.63,0,0,0-1,.95,5,5,0,0,0-.57,1.41A7.28,7.28,0,0,0,48,19.59a7.23,7.23,0,0,0,.33,2.31,3.18,3.18,0,0,0,1,1.55A2.75,2.75,0,0,0,51.2,24Z"/>
      <path d="M79.07,25.29V19.37c0-.56,0-1,0-1.39a7.45,7.45,0,0,0-.16-1.14,2.55,2.55,0,0,0-.37-.92,1.61,1.61,0,0,0-.65-.55,2.13,2.13,0,0,0-1-.21,3.13,3.13,0,0,0-2,.61,3.36,3.36,0,0,0-1.14,1.72,13.41,13.41,0,0,0-.09,1.6v6.2H71.94V19.18a13,13,0,0,0,0-1.33,5.63,5.63,0,0,0-.2-1.1,2.51,2.51,0,0,0-.38-.87,1.79,1.79,0,0,0-.65-.53,2.21,2.21,0,0,0-1-.19,3.41,3.41,0,0,0-2.09.63,3,3,0,0,0-1.13,1.68,15.37,15.37,0,0,0-.1,1.73v6.09H64.64q0-10.68,0-11.38h1.45l.22,1.63a4.23,4.23,0,0,1,1.47-1.33,4.34,4.34,0,0,1,2.17-.54,5.37,5.37,0,0,1,1.17.13,4,4,0,0,1,.89.33,3,3,0,0,1,.64.47,2.54,2.54,0,0,1,.43.54,2.85,2.85,0,0,1,.26.56,4.17,4.17,0,0,1,3.81-2,3.37,3.37,0,0,1,2.78,1.09A5,5,0,0,1,80.8,18v7.32Z"/>
      <path d="M93,19.59a6.34,6.34,0,0,1-1.41,4.29,4.86,4.86,0,0,1-3.9,1.65,4.76,4.76,0,0,1-3.81-1.66,6.33,6.33,0,0,1-1.42-4.27,6.31,6.31,0,0,1,1.42-4.29,4.91,4.91,0,0,1,3.9-1.64,4.75,4.75,0,0,1,3.83,1.65A6.41,6.41,0,0,1,93,19.59Zm-8.75,0a5.36,5.36,0,0,0,.9,3.24,3.05,3.05,0,0,0,2.62,1.21,3,3,0,0,0,2.57-1.21,5.58,5.58,0,0,0,.86-3.27,5.57,5.57,0,0,0-.85-3.28,3.39,3.39,0,0,0-5.2,0A5.41,5.41,0,0,0,84.27,19.63Z"/>
      <path d="M100.57,13.81a5.57,5.57,0,0,1,.85.06l-.07,1.6a4.45,4.45,0,0,0-.83-.09,3,3,0,0,0-2.35,1,3.56,3.56,0,0,0-.91,2.5v6.39H95.53c0-7,0-10.78,0-11.38H97l.16,2a4.86,4.86,0,0,1,1.51-1.55A3.45,3.45,0,0,1,100.57,13.81Z"/>
      <path d="M107.8,25.53A5,5,0,0,1,103.9,24a6.19,6.19,0,0,1-1.43-4.31,6.43,6.43,0,0,1,1.38-4.29,4.59,4.59,0,0,1,3.63-1.68,4.22,4.22,0,0,1,3.36,1.45A5.75,5.75,0,0,1,112.08,19c0,.09,0,.24,0,.46v.48h-7.81a4.46,4.46,0,0,0,1,3A3.31,3.31,0,0,0,107.87,24a7.68,7.68,0,0,0,3.62-.95l.27,1.4A7.52,7.52,0,0,1,107.8,25.53ZM109.55,16a2.6,2.6,0,0,0-2.09-.91,2.81,2.81,0,0,0-2.17.94,4.34,4.34,0,0,0-1,2.57h6A3.93,3.93,0,0,0,109.55,16Z"/>
    </g>
    <rect class="cls-1" width="128" height="39.26" rx="8"/>
    <g>
      <path class="cls-2" d="M21.58,13.81a5.61,5.61,0,0,1,.86.06l-.07,1.6a4.45,4.45,0,0,0-.83-.09,3,3,0,0,0-2.36,1,3.6,3.6,0,0,0-.9,2.5v6.39H16.55c0-7,0-10.78,0-11.38H18l.16,2a4.86,4.86,0,0,1,1.51-1.55A3.42,3.42,0,0,1,21.58,13.81Z"/>
      <path class="cls-2" d="M28.82,25.53A5,5,0,0,1,24.92,24a6.19,6.19,0,0,1-1.43-4.31,6.43,6.43,0,0,1,1.38-4.29,4.59,4.59,0,0,1,3.63-1.68,4.22,4.22,0,0,1,3.36,1.45A5.75,5.75,0,0,1,33.1,19c0,.09,0,.24,0,.46v.48H25.28a4.46,4.46,0,0,0,1,3A3.31,3.31,0,0,0,28.89,24a7.61,7.61,0,0,0,3.61-.95l.27,1.4A7.46,7.46,0,0,1,28.82,25.53ZM30.57,16a2.6,2.6,0,0,0-2.09-.91,2.81,2.81,0,0,0-2.17.94,4.34,4.34,0,0,0-1,2.57h6A3.93,3.93,0,0,0,30.57,16Z"/>
      <path class="cls-2" d="M42.43,25.29c-.1-.44-.2-.92-.3-1.43a6,6,0,0,1-1.77,1.3,4.74,4.74,0,0,1-2,.37,3.79,3.79,0,0,1-2.57-.84,3,3,0,0,1-1-2.4,2.84,2.84,0,0,1,1.32-2.58A8.5,8.5,0,0,1,40,18.66l1-.09,1-.08v-1a2.48,2.48,0,0,0-.56-1.78,2.36,2.36,0,0,0-1.77-.59,7.76,7.76,0,0,0-3.39.83l-.27-.72c-.14-.39-.22-.6-.23-.61a7,7,0,0,1,1.8-.68,9,9,0,0,1,2.12-.26,4.25,4.25,0,0,1,3.07.93,4.33,4.33,0,0,1,.94,3.16v7.53Zm-3.76-1.16a3.64,3.64,0,0,0,2.17-.68,3.11,3.11,0,0,0,1.21-1.83V19.7l-.63.05-.75.06a7.81,7.81,0,0,0-3.14.74,1.88,1.88,0,0,0-.89,1.73,1.72,1.72,0,0,0,.54,1.38A2.22,2.22,0,0,0,38.67,24.13Z"/>
      <path class="cls-2" d="M54.62,23.64A4.21,4.21,0,0,1,53.12,25a4.61,4.61,0,0,1-5.61-1.1,6.8,6.8,0,0,1-1.27-4.36,6.63,6.63,0,0,1,1.29-4.25A4.21,4.21,0,0,1,51,13.67a4.76,4.76,0,0,1,2.13.5,3.53,3.53,0,0,1,1.5,1.32l0-1v-5l1.72-.1v15.9H54.84ZM51.2,24a3,3,0,0,0,2.55-1.1,5.08,5.08,0,0,0,.83-3.14,6.12,6.12,0,0,0-.8-3.47,2.92,2.92,0,0,0-2.6-1.16,2.83,2.83,0,0,0-1.41.34,2.63,2.63,0,0,0-1,.95,5,5,0,0,0-.57,1.41A7.28,7.28,0,0,0,48,19.59a7.23,7.23,0,0,0,.33,2.31,3.18,3.18,0,0,0,1,1.55A2.75,2.75,0,0,0,51.2,24Z"/>
      <path class="cls-2" d="M79.07,25.29V19.37c0-.56,0-1,0-1.39a7.45,7.45,0,0,0-.16-1.14,2.55,2.55,0,0,0-.37-.92,1.61,1.61,0,0,0-.65-.55,2.13,2.13,0,0,0-1-.21,3.13,3.13,0,0,0-2,.61,3.36,3.36,0,0,0-1.14,1.72,13.41,13.41,0,0,0-.09,1.6v6.2H71.94V19.18a13,13,0,0,0,0-1.33,5.63,5.63,0,0,0-.2-1.1,2.51,2.51,0,0,0-.38-.87,1.79,1.79,0,0,0-.65-.53,2.21,2.21,0,0,0-1-.19,3.41,3.41,0,0,0-2.09.63,3,3,0,0,0-1.13,1.68,15.37,15.37,0,0,0-.1,1.73v6.09H64.64q0-10.68,0-11.38h1.45l.22,1.63a4.23,4.23,0,0,1,1.47-1.33,4.34,4.34,0,0,1,2.17-.54,5.37,5.37,0,0,1,1.17.13,4,4,0,0,1,.89.33,3,3,0,0,1,.64.47,2.54,2.54,0,0,1,.43.54,2.85,2.85,0,0,1,.26.56,4.17,4.17,0,0,1,3.81-2,3.37,3.37,0,0,1,2.78,1.09A5,5,0,0,1,80.8,18v7.32Z"/>
      <path class="cls-2" d="M93,19.59a6.34,6.34,0,0,1-1.41,4.29,4.86,4.86,0,0,1-3.9,1.65,4.76,4.76,0,0,1-3.81-1.66,6.33,6.33,0,0,1-1.42-4.27,6.31,6.31,0,0,1,1.42-4.29,4.91,4.91,0,0,1,3.9-1.64,4.75,4.75,0,0,1,3.83,1.65A6.41,6.41,0,0,1,93,19.59Zm-8.75,0a5.36,5.36,0,0,0,.9,3.24,3.05,3.05,0,0,0,2.62,1.21,3,3,0,0,0,2.57-1.21,5.58,5.58,0,0,0,.86-3.27,5.57,5.57,0,0,0-.85-3.28,3.39,3.39,0,0,0-5.2,0A5.41,5.41,0,0,0,84.27,19.63Z"/>
      <path class="cls-2" d="M100.57,13.81a5.57,5.57,0,0,1,.85.06l-.07,1.6a4.45,4.45,0,0,0-.83-.09,3,3,0,0,0-2.35,1,3.56,3.56,0,0,0-.91,2.5v6.39H95.53c0-7,0-10.78,0-11.38H97l.16,2a4.86,4.86,0,0,1,1.51-1.55A3.45,3.45,0,0,1,100.57,13.81Z"/>
      <path class="cls-2" d="M107.8,25.53A5,5,0,0,1,103.9,24a6.19,6.19,0,0,1-1.43-4.31,6.43,6.43,0,0,1,1.38-4.29,4.59,4.59,0,0,1,3.63-1.68,4.22,4.22,0,0,1,3.36,1.45A5.75,5.75,0,0,1,112.08,19c0,.09,0,.24,0,.46v.48h-7.81a4.46,4.46,0,0,0,1,3A3.31,3.31,0,0,0,107.87,24a7.68,7.68,0,0,0,3.62-.95l.27,1.4A7.52,7.52,0,0,1,107.8,25.53ZM109.55,16a2.6,2.6,0,0,0-2.09-.91,2.81,2.81,0,0,0-2.17.94,4.34,4.34,0,0,0-1,2.57h6A3.93,3.93,0,0,0,109.55,16Z"/>
    </g>
  </g>
</svg>
