<svg id="Layer_1" data-name="Layer 1" xmlns="http://www.w3.org/2000/svg" width="122.91" height="39.26" viewBox="0 0 122.91 39.26">
  <defs>
    <style>
      .cls-1 {
        fill: #593718;
      }

      .cls-2 {
        fill: #f8efd2;
      }
    </style>
  </defs>
  <g>
    <g>
      <path d="M19.87,25.53a9,9,0,0,1-2.14-.25,5.36,5.36,0,0,1-1.59-.65l.22-1.46a7.15,7.15,0,0,0,3.4.93c1.69,0,2.55-.6,2.6-1.79a1.45,1.45,0,0,0-.54-1.19,7.63,7.63,0,0,0-2.11-1l-.86-.3a4.71,4.71,0,0,1-2.13-1.23,2.73,2.73,0,0,1-.65-1.84,2.77,2.77,0,0,1,1.07-2.22,4.56,4.56,0,0,1,2.94-.88,8.14,8.14,0,0,1,3.52.75l-.51,1.33a8,8,0,0,0-3-.67,3,3,0,0,0-1.7.43,1.38,1.38,0,0,0-.62,1.21,1.25,1.25,0,0,0,.44,1,7.23,7.23,0,0,0,1.79.81l.86.29a5.78,5.78,0,0,1,2.44,1.32A2.91,2.91,0,0,1,24,22.22a3,3,0,0,1-1.13,2.44A4.74,4.74,0,0,1,19.87,25.53Z"/>
      <path d="M34,25.29V18.41a4.37,4.37,0,0,0-.55-2.49,2.17,2.17,0,0,0-1.9-.77,3.61,3.61,0,0,0-2.2.65,3,3,0,0,0-1.17,1.69,15.22,15.22,0,0,0-.09,1.73v6.07H26.39V9.49l1.73-.1V14c0,.39,0,.88,0,1.46A4.71,4.71,0,0,1,32,13.67q3.8,0,3.8,4.47v7.15Z"/>
      <path d="M47.91,19.59a6.34,6.34,0,0,1-1.41,4.29,4.88,4.88,0,0,1-3.9,1.65,4.8,4.8,0,0,1-3.82-1.66,6.37,6.37,0,0,1-1.41-4.27,6.31,6.31,0,0,1,1.42-4.29,4.91,4.91,0,0,1,3.9-1.64,4.75,4.75,0,0,1,3.83,1.65A6.41,6.41,0,0,1,47.91,19.59Zm-8.75,0a5.36,5.36,0,0,0,.9,3.24,3.05,3.05,0,0,0,2.62,1.21,3,3,0,0,0,2.57-1.21,5.58,5.58,0,0,0,.86-3.27,5.57,5.57,0,0,0-.85-3.28,3.39,3.39,0,0,0-5.2,0A5.41,5.41,0,0,0,39.16,19.63Z"/>
      <path d="M60.1,25.29q-2.4-7.65-3-9.53c-.21.76-.46,1.58-.73,2.47s-.52,1.64-.73,2.28S55.2,22,54.86,23s-.58,1.78-.75,2.31H52.24L49,13.91h1.8l2.44,9.31q.5-1.65,3-9.31h2q2.47,7.82,2.91,9.28l2.4-9.28h1.77L62,25.29Z"/>
      <path d="M75.29,25.5a2.79,2.79,0,0,1-2.35-.9,5.19,5.19,0,0,1-.69-3.1v-12L74,9.39V20.82c0,.47,0,.85,0,1.13a7.53,7.53,0,0,0,.08.83,2.06,2.06,0,0,0,.17.62,1,1,0,0,0,.3.38A1,1,0,0,0,75,24a3.31,3.31,0,0,0,.68,0c.22,0,.65,0,1.3-.12l.1,1.38A11.1,11.1,0,0,1,75.29,25.5Z"/>
      <path d="M83,25.53A5,5,0,0,1,79,24a6.19,6.19,0,0,1-1.42-4.31A6.43,6.43,0,0,1,79,15.35a4.57,4.57,0,0,1,3.62-1.68A4.21,4.21,0,0,1,86,15.12,5.7,5.7,0,0,1,87.22,19c0,.09,0,.24,0,.46v.48H79.4a4.46,4.46,0,0,0,1,3A3.34,3.34,0,0,0,83,24a7.68,7.68,0,0,0,3.62-.95l.27,1.4A7.48,7.48,0,0,1,83,25.53ZM84.69,16a2.58,2.58,0,0,0-2.09-.91,2.79,2.79,0,0,0-2.16.94,4.34,4.34,0,0,0-1,2.57h6A3.93,3.93,0,0,0,84.69,16Z"/>
      <path d="M93,25.53a9.06,9.06,0,0,1-2.15-.25,5.36,5.36,0,0,1-1.59-.65l.22-1.46a7.18,7.18,0,0,0,3.4.93c1.69,0,2.56-.6,2.6-1.79A1.44,1.44,0,0,0,95,21.12a7.74,7.74,0,0,0-2.12-1l-.86-.3a4.71,4.71,0,0,1-2.13-1.23,2.73,2.73,0,0,1-.65-1.84,2.77,2.77,0,0,1,1.07-2.22,4.56,4.56,0,0,1,2.94-.88,8.14,8.14,0,0,1,3.52.75l-.51,1.33a8,8,0,0,0-3-.67,3,3,0,0,0-1.7.43,1.4,1.4,0,0,0-.62,1.21,1.23,1.23,0,0,0,.45,1,6.93,6.93,0,0,0,1.78.81l.86.29a5.78,5.78,0,0,1,2.44,1.32,2.87,2.87,0,0,1,.71,2.06A3,3,0,0,1,96,24.66,4.73,4.73,0,0,1,93,25.53Z"/>
      <path d="M102.9,25.53a8.91,8.91,0,0,1-2.14-.25,5.15,5.15,0,0,1-1.59-.65l.21-1.46a7.18,7.18,0,0,0,3.41.93c1.68,0,2.55-.6,2.6-1.79a1.45,1.45,0,0,0-.54-1.19,7.74,7.74,0,0,0-2.12-1l-.86-.3a4.82,4.82,0,0,1-2.13-1.23,2.79,2.79,0,0,1-.65-1.84,2.75,2.75,0,0,1,1.08-2.22,4.52,4.52,0,0,1,2.94-.88,8.12,8.12,0,0,1,3.51.75l-.51,1.33a8,8,0,0,0-3-.67,3,3,0,0,0-1.71.43,1.4,1.4,0,0,0-.62,1.21,1.23,1.23,0,0,0,.45,1,7.11,7.11,0,0,0,1.78.81l.86.29a5.78,5.78,0,0,1,2.44,1.32,2.87,2.87,0,0,1,.72,2.06,3,3,0,0,1-1.13,2.44A4.74,4.74,0,0,1,102.9,25.53Z"/>
    </g>
    <rect class="cls-1" width="122.91" height="39.26" rx="8"/>
    <g>
      <path class="cls-2" d="M19.87,25.53a9,9,0,0,1-2.14-.25,5.36,5.36,0,0,1-1.59-.65l.22-1.46a7.15,7.15,0,0,0,3.4.93c1.69,0,2.55-.6,2.6-1.79a1.45,1.45,0,0,0-.54-1.19,7.63,7.63,0,0,0-2.11-1l-.86-.3a4.71,4.71,0,0,1-2.13-1.23,2.73,2.73,0,0,1-.65-1.84,2.77,2.77,0,0,1,1.07-2.22,4.56,4.56,0,0,1,2.94-.88,8.14,8.14,0,0,1,3.52.75l-.51,1.33a8,8,0,0,0-3-.67,3,3,0,0,0-1.7.43,1.38,1.38,0,0,0-.62,1.21,1.25,1.25,0,0,0,.44,1,7.23,7.23,0,0,0,1.79.81l.86.29a5.78,5.78,0,0,1,2.44,1.32A2.91,2.91,0,0,1,24,22.22a3,3,0,0,1-1.13,2.44A4.74,4.74,0,0,1,19.87,25.53Z"/>
      <path class="cls-2" d="M34,25.29V18.41a4.37,4.37,0,0,0-.55-2.49,2.17,2.17,0,0,0-1.9-.77,3.61,3.61,0,0,0-2.2.65,3,3,0,0,0-1.17,1.69,15.22,15.22,0,0,0-.09,1.73v6.07H26.39V9.49l1.73-.1V14c0,.39,0,.88,0,1.46A4.71,4.71,0,0,1,32,13.67q3.8,0,3.8,4.47v7.15Z"/>
      <path class="cls-2" d="M47.91,19.59a6.34,6.34,0,0,1-1.41,4.29,4.88,4.88,0,0,1-3.9,1.65,4.8,4.8,0,0,1-3.82-1.66,6.37,6.37,0,0,1-1.41-4.27,6.31,6.31,0,0,1,1.42-4.29,4.91,4.91,0,0,1,3.9-1.64,4.75,4.75,0,0,1,3.83,1.65A6.41,6.41,0,0,1,47.91,19.59Zm-8.75,0a5.36,5.36,0,0,0,.9,3.24,3.05,3.05,0,0,0,2.62,1.21,3,3,0,0,0,2.57-1.21,5.58,5.58,0,0,0,.86-3.27,5.57,5.57,0,0,0-.85-3.28,3.39,3.39,0,0,0-5.2,0A5.41,5.41,0,0,0,39.16,19.63Z"/>
      <path class="cls-2" d="M60.1,25.29q-2.4-7.65-3-9.53c-.21.76-.46,1.58-.73,2.47s-.52,1.64-.73,2.28S55.2,22,54.86,23s-.58,1.78-.75,2.31H52.24L49,13.91h1.8l2.44,9.31q.5-1.65,3-9.31h2q2.47,7.82,2.91,9.28l2.4-9.28h1.77L62,25.29Z"/>
      <path class="cls-2" d="M75.29,25.5a2.79,2.79,0,0,1-2.35-.9,5.19,5.19,0,0,1-.69-3.1v-12L74,9.39V20.82c0,.47,0,.85,0,1.13a7.53,7.53,0,0,0,.08.83,2.06,2.06,0,0,0,.17.62,1,1,0,0,0,.3.38A1,1,0,0,0,75,24a3.31,3.31,0,0,0,.68,0c.22,0,.65,0,1.3-.12l.1,1.38A11.1,11.1,0,0,1,75.29,25.5Z"/>
      <path class="cls-2" d="M83,25.53A5,5,0,0,1,79,24a6.19,6.19,0,0,1-1.42-4.31A6.43,6.43,0,0,1,79,15.35a4.57,4.57,0,0,1,3.62-1.68A4.21,4.21,0,0,1,86,15.12,5.7,5.7,0,0,1,87.22,19c0,.09,0,.24,0,.46v.48H79.4a4.46,4.46,0,0,0,1,3A3.34,3.34,0,0,0,83,24a7.68,7.68,0,0,0,3.62-.95l.27,1.4A7.48,7.48,0,0,1,83,25.53ZM84.69,16a2.58,2.58,0,0,0-2.09-.91,2.79,2.79,0,0,0-2.16.94,4.34,4.34,0,0,0-1,2.57h6A3.93,3.93,0,0,0,84.69,16Z"/>
      <path class="cls-2" d="M93,25.53a9.06,9.06,0,0,1-2.15-.25,5.36,5.36,0,0,1-1.59-.65l.22-1.46a7.18,7.18,0,0,0,3.4.93c1.69,0,2.56-.6,2.6-1.79A1.44,1.44,0,0,0,95,21.12a7.74,7.74,0,0,0-2.12-1l-.86-.3a4.71,4.71,0,0,1-2.13-1.23,2.73,2.73,0,0,1-.65-1.84,2.77,2.77,0,0,1,1.07-2.22,4.56,4.56,0,0,1,2.94-.88,8.14,8.14,0,0,1,3.52.75l-.51,1.33a8,8,0,0,0-3-.67,3,3,0,0,0-1.7.43,1.4,1.4,0,0,0-.62,1.21,1.23,1.23,0,0,0,.45,1,6.93,6.93,0,0,0,1.78.81l.86.29a5.78,5.78,0,0,1,2.44,1.32,2.87,2.87,0,0,1,.71,2.06A3,3,0,0,1,96,24.66,4.73,4.73,0,0,1,93,25.53Z"/>
      <path class="cls-2" d="M102.9,25.53a8.91,8.91,0,0,1-2.14-.25,5.15,5.15,0,0,1-1.59-.65l.21-1.46a7.18,7.18,0,0,0,3.41.93c1.68,0,2.55-.6,2.6-1.79a1.45,1.45,0,0,0-.54-1.19,7.74,7.74,0,0,0-2.12-1l-.86-.3a4.82,4.82,0,0,1-2.13-1.23,2.79,2.79,0,0,1-.65-1.84,2.75,2.75,0,0,1,1.08-2.22,4.52,4.52,0,0,1,2.94-.88,8.12,8.12,0,0,1,3.51.75l-.51,1.33a8,8,0,0,0-3-.67,3,3,0,0,0-1.71.43,1.4,1.4,0,0,0-.62,1.21,1.23,1.23,0,0,0,.45,1,7.11,7.11,0,0,0,1.78.81l.86.29a5.78,5.78,0,0,1,2.44,1.32,2.87,2.87,0,0,1,.72,2.06,3,3,0,0,1-1.13,2.44A4.74,4.74,0,0,1,102.9,25.53Z"/>
    </g>
  </g>
</svg>
